<?xml version="1.0" encoding="UTF-8"?>
<svg width="24px" height="24px" viewBox="0 0 24 24" version="1.1" xmlns="http://www.w3.org/2000/svg" xmlns:xlink="http://www.w3.org/1999/xlink">
    <title>more</title>
    <g id="黑色主题" stroke="none" stroke-width="1" fill="none" fill-rule="evenodd">
        <g id="首页" transform="translate(-366.000000, -114.000000)">
            <rect id="矩形" fill-opacity="0.04" fill="#000000" x="0" y="0" width="414" height="896"></rect>
            <g id="编组-2" transform="translate(16.000000, 100.000000)">
                <rect id="矩形" fill="#FFFFFF" x="0" y="0" width="382" height="128" rx="4"></rect>
                <g id="more" transform="translate(350.000000, 14.000000)" fill="#000000" fill-rule="nonzero">
                    <rect id="矩形" opacity="0" x="0" y="0" width="24" height="24"></rect>
                    <path d="M6.75,10.70775 C6.5229569,10.572957 6.26403824,10.5012365 6,10.5 C5.17157288,10.5 4.5,11.1715729 4.5,12 C4.5,12.8284271 5.17157288,13.5 6,13.5 C6.2745,13.5 6.52875,13.4205 6.75,13.2915 C7.19625,13.032 7.5,12.5535 7.5,12 C7.5,11.44575 7.19625,10.96725 6.75,10.70775 M12.75,10.70775 C12.5229569,10.572957 12.2640382,10.5012365 12,10.5 C11.7255,10.5 11.47125,10.57875 11.25,10.70775 C10.80375,10.96725 10.5,11.44575 10.5,12 C10.5,12.5535 10.80375,13.032 11.25,13.2915 C11.47125,13.4205 11.7255,13.5 12,13.5 C12.2745,13.5 12.52875,13.4205 12.75,13.2915 C13.19625,13.032 13.5,12.5535 13.5,12 C13.5,11.44575 13.19625,10.96725 12.75,10.70775 M18,10.5 C17.7255,10.5 17.47125,10.5795 17.25,10.70775 C16.80375,10.968 16.5,11.4465 16.5,12 C16.5,12.5535 16.80375,13.032 17.25,13.29225 C17.47125,13.4205 17.7255,13.5 18,13.5 C18.8284271,13.5 19.5,12.8284271 19.5,12 C19.5,11.1715729 18.8284271,10.5 18,10.5" id="形状" fill-opacity="0.85" transform="translate(12.000000, 12.000000) rotate(90.000000) translate(-12.000000, -12.000000) "></path>
                </g>
            </g>
        </g>
    </g>
</svg>